# xmcd
#
# Track frame offsets:
#	150
#	8993
#	20173
#	36015
#	47337
#	57302
#	69002
#	79446
#	90508
#	100101
#	111089
#	123410
#	133690
#	146552
#	157267
#	172326
#	184719
#	194983
#	205587
#	216593
#
# Disc length: 3036 seconds
#
# Revision: 2
# Processed by: cddbd v1.5.2PL0 Copyright (c) Steve Scherf et al.
# Submitted via: audiograbber 1.83.01
#
DISCID=290bda14
DTITLE=Various Artist - London American Doowop 1959 - 1961 CD 2
DYEAR=2012
DGENRE=Oldies
TTITLE0=Shirelles, The - Tonight's The Night (61) (Doo Wop)
TTITLE1=Chimes, The - Once In A While (60) (Doo Wop)
TTITLE2=Rosie and The Originals - Angel Baby (60) (Doo Wop)
TTITLE3=Shells, The - Baby Oh Baby (57) (Doo Wop)
TTITLE4=Chimes, The - Summer Nights (60) (Doo Wop)
TTITLE5=Velvets, The - That Lucky Old Sun (60) (Doo Wop) !
TTITLE6=Drifters, The - Some Kind Of Wonderful (61) (Doo Wop)
TTITLE7=Pentagons, The - To Be Loved (61) (Doo Wop)
TTITLE8=Velvets, The - Tonight Could Be The Night (61) (Doo Wop)
TTITLE9=Strollers, The - Come On Over (61) (Doo Wop)
TTITLE10=Curtis Lee - Pretty Little Angel Eyes (61) (Doo Wop)
TTITLE11=Drifters, The - Please Stay (61) (Doo Wop)
TTITLE12=Halos, The - Nag (61) (Doo Wop)
TTITLE13=Velvets, The - Lana (61) (Doo Wop) !
TTITLE14=Curtis Lee - Gee How I Wish You Were Here (61) (Doo Wop)
TTITLE15=G Clefs, The - I Understand (61) (Doo Wop)
TTITLE16=Flares, The - Foot Stomping (61) (Doo Wop)
TTITLE17=Velvets, The - Laugh (61) (Doo Wop)
TTITLE18=Chantels, The - Well I Told You (61) (Doo Wop)
TTITLE19=Showmen, The - It Will Stand (61) (Doo Wop)
EXTD=
EXTT0=
EXTT1=
EXTT2=
EXTT3=
EXTT4=
EXTT5=
EXTT6=
EXTT7=
EXTT8=
EXTT9=
EXTT10=
EXTT11=
EXTT12=
EXTT13=
EXTT14=
EXTT15=
EXTT16=
EXTT17=
EXTT18=
EXTT19=
PLAYORDER=
